<mxfile host="65bd71144e">
    <diagram id="9lYWtVpP__sbNEl0aPnh" name="페이지-1">
        <mxGraphModel dx="976" dy="599" grid="1" gridSize="10" guides="1" tooltips="1" connect="1" arrows="1" fold="1" page="1" pageScale="1" pageWidth="827" pageHeight="1169" background="#000000" math="0" shadow="1">
            <root>
                <mxCell id="0"/>
                <mxCell id="1" parent="0"/>
                <mxCell id="131" value="" style="whiteSpace=wrap;html=1;" parent="1" vertex="1">
                    <mxGeometry x="250" y="510" width="60" height="60" as="geometry"/>
                </mxCell>
                <mxCell id="130" value="" style="whiteSpace=wrap;html=1;" parent="1" vertex="1">
                    <mxGeometry x="330" y="330" width="60" height="60" as="geometry"/>
                </mxCell>
                <mxCell id="34" value="yes hi | grep -m 1 &quot;h&quot; | cat" style="whiteSpace=wrap;html=1;fillColor=#000000;strokeColor=#FFFFFF;fontColor=#FFFFFF;labelBorderColor=default;" parent="1" vertex="1">
                    <mxGeometry x="420" y="120" width="240" height="40" as="geometry"/>
                </mxCell>
                <mxCell id="56" style="edgeStyle=none;html=1;startArrow=none;" parent="1" source="39" edge="1">
                    <mxGeometry relative="1" as="geometry">
                        <mxPoint x="200" y="300" as="targetPoint"/>
                    </mxGeometry>
                </mxCell>
                <mxCell id="124" value="" style="edgeStyle=none;html=1;strokeColor=#FFFFFF;" parent="1" source="35" target="39" edge="1">
                    <mxGeometry relative="1" as="geometry"/>
                </mxCell>
                <mxCell id="35" value="| (PIPE)" style="whiteSpace=wrap;html=1;strokeColor=#FFFFFF;fontFamily=Helvetica;fontSize=12;fontColor=#FFFFFF;fillColor=#000000;" parent="1" vertex="1">
                    <mxGeometry x="160" y="160" width="80" height="40" as="geometry"/>
                </mxCell>
                <mxCell id="106" value="" style="edgeStyle=none;shape=connector;rounded=1;html=1;labelBackgroundColor=default;strokeColor=#FFFFFF;fontFamily=Helvetica;fontSize=11;fontColor=default;endArrow=classic;" parent="1" source="40" edge="1">
                    <mxGeometry relative="1" as="geometry">
                        <mxPoint x="360" y="340" as="targetPoint"/>
                    </mxGeometry>
                </mxCell>
                <mxCell id="108" value="" style="edgeStyle=none;shape=connector;rounded=1;html=1;labelBackgroundColor=default;strokeColor=#FFFFFF;fontFamily=Helvetica;fontSize=11;fontColor=default;endArrow=classic;" parent="1" source="40" target="103" edge="1">
                    <mxGeometry relative="1" as="geometry"/>
                </mxCell>
                <mxCell id="40" value="cat (CMD)" style="whiteSpace=wrap;html=1;strokeColor=#FFFFFF;fontFamily=Helvetica;fontSize=12;fontColor=#FFFFFF;fillColor=#000000;" parent="1" vertex="1">
                    <mxGeometry x="320" y="280" width="80" height="40" as="geometry"/>
                </mxCell>
                <mxCell id="105" value="" style="edgeStyle=none;shape=connector;rounded=1;html=1;labelBackgroundColor=default;strokeColor=#FFFFFF;fontFamily=Helvetica;fontSize=11;fontColor=default;endArrow=classic;" parent="1" source="44" target="91" edge="1">
                    <mxGeometry relative="1" as="geometry"/>
                </mxCell>
                <mxCell id="109" value="" style="edgeStyle=none;shape=connector;rounded=1;html=1;labelBackgroundColor=default;strokeColor=#FFFFFF;fontFamily=Helvetica;fontSize=11;fontColor=default;endArrow=classic;" parent="1" source="44" target="48" edge="1">
                    <mxGeometry relative="1" as="geometry"/>
                </mxCell>
                <mxCell id="44" value="yes (CMD)" style="whiteSpace=wrap;html=1;strokeColor=#FFFFFF;fontFamily=Helvetica;fontSize=12;fontColor=#FFFFFF;fillColor=#000000;" parent="1" vertex="1">
                    <mxGeometry x="160" y="400" width="80" height="40" as="geometry"/>
                </mxCell>
                <mxCell id="107" value="" style="edgeStyle=none;shape=connector;rounded=1;html=1;labelBackgroundColor=default;strokeColor=#FFFFFF;fontFamily=Helvetica;fontSize=11;fontColor=default;endArrow=classic;" parent="1" source="48" edge="1">
                    <mxGeometry relative="1" as="geometry">
                        <mxPoint x="440" y="420" as="targetPoint"/>
                    </mxGeometry>
                </mxCell>
                <mxCell id="111" value="" style="edgeStyle=none;shape=connector;rounded=1;html=1;labelBackgroundColor=default;strokeColor=#FFFFFF;fontFamily=Helvetica;fontSize=11;fontColor=default;endArrow=classic;" parent="1" source="48" target="51" edge="1">
                    <mxGeometry relative="1" as="geometry"/>
                </mxCell>
                <mxCell id="48" value="grep (CMD)" style="whiteSpace=wrap;html=1;strokeColor=#FFFFFF;fontFamily=Helvetica;fontSize=12;fontColor=#FFFFFF;fillColor=#000000;" parent="1" vertex="1">
                    <mxGeometry x="320" y="400" width="80" height="40" as="geometry"/>
                </mxCell>
                <mxCell id="113" value="" style="edgeStyle=none;shape=connector;rounded=1;html=1;labelBackgroundColor=default;strokeColor=#FFFFFF;fontFamily=Helvetica;fontSize=11;fontColor=default;endArrow=classic;" parent="1" source="49" target="52" edge="1">
                    <mxGeometry relative="1" as="geometry"/>
                </mxCell>
                <mxCell id="122" value="" style="edgeStyle=none;shape=connector;rounded=1;html=1;labelBackgroundColor=default;strokeColor=#FFFFFF;fontFamily=Helvetica;fontSize=11;fontColor=default;endArrow=classic;" parent="1" source="49" edge="1">
                    <mxGeometry relative="1" as="geometry">
                        <mxPoint x="480" y="600" as="targetPoint"/>
                    </mxGeometry>
                </mxCell>
                <mxCell id="49" value="1 (ARGS)" style="whiteSpace=wrap;html=1;strokeColor=#FFFFFF;fontFamily=Helvetica;fontSize=12;fontColor=#FFFFFF;fillColor=#000000;" parent="1" vertex="1">
                    <mxGeometry x="440" y="520" width="80" height="40" as="geometry"/>
                </mxCell>
                <mxCell id="112" value="" style="edgeStyle=none;shape=connector;rounded=1;html=1;labelBackgroundColor=default;strokeColor=#FFFFFF;fontFamily=Helvetica;fontSize=11;fontColor=default;endArrow=classic;" parent="1" source="51" target="49" edge="1">
                    <mxGeometry relative="1" as="geometry"/>
                </mxCell>
                <mxCell id="121" value="" style="edgeStyle=none;shape=connector;rounded=1;html=1;labelBackgroundColor=default;strokeColor=#FFFFFF;fontFamily=Helvetica;fontSize=11;fontColor=default;endArrow=classic;" parent="1" source="51" edge="1">
                    <mxGeometry relative="1" as="geometry">
                        <mxPoint x="360" y="600" as="targetPoint"/>
                    </mxGeometry>
                </mxCell>
                <mxCell id="51" value="-m (ARGS)" style="whiteSpace=wrap;html=1;strokeColor=#FFFFFF;fontFamily=Helvetica;fontSize=12;fontColor=#FFFFFF;fillColor=#000000;" parent="1" vertex="1">
                    <mxGeometry x="320" y="520" width="80" height="40" as="geometry"/>
                </mxCell>
                <mxCell id="116" value="" style="edgeStyle=none;shape=connector;rounded=1;html=1;labelBackgroundColor=default;strokeColor=#FFFFFF;fontFamily=Helvetica;fontSize=11;fontColor=default;endArrow=classic;" parent="1" source="52" target="115" edge="1">
                    <mxGeometry relative="1" as="geometry"/>
                </mxCell>
                <mxCell id="123" value="" style="edgeStyle=none;shape=connector;rounded=1;html=1;labelBackgroundColor=default;strokeColor=#FFFFFF;fontFamily=Helvetica;fontSize=11;fontColor=default;endArrow=classic;" parent="1" source="52" edge="1">
                    <mxGeometry relative="1" as="geometry">
                        <mxPoint x="600" y="600" as="targetPoint"/>
                    </mxGeometry>
                </mxCell>
                <mxCell id="52" value="h (ARGS)" style="whiteSpace=wrap;html=1;strokeColor=#FFFFFF;fontFamily=Helvetica;fontSize=12;fontColor=#FFFFFF;fillColor=#000000;" parent="1" vertex="1">
                    <mxGeometry x="560" y="520" width="80" height="40" as="geometry"/>
                </mxCell>
                <mxCell id="91" value="hi (ARGS)" style="whiteSpace=wrap;html=1;strokeColor=#FFFFFF;fontFamily=Helvetica;fontSize=12;fontColor=#FFFFFF;fillColor=#000000;" parent="1" vertex="1">
                    <mxGeometry x="160" y="520" width="80" height="40" as="geometry"/>
                </mxCell>
                <mxCell id="92" style="edgeStyle=none;html=1;strokeColor=#FFFFFF;" parent="1" edge="1">
                    <mxGeometry relative="1" as="geometry">
                        <mxPoint x="280" y="179.5" as="targetPoint"/>
                        <mxPoint x="240" y="179.5" as="sourcePoint"/>
                    </mxGeometry>
                </mxCell>
                <mxCell id="93" value="NULL" style="whiteSpace=wrap;html=1;strokeColor=#FFFFFF;fontFamily=Helvetica;fontSize=12;fontColor=#FFFFFF;fillColor=#000000;" parent="1" vertex="1">
                    <mxGeometry x="280" y="160" width="40" height="40" as="geometry"/>
                </mxCell>
                <mxCell id="98" value="" style="edgeStyle=none;shape=connector;rounded=1;html=1;labelBackgroundColor=default;strokeColor=#FFFFFF;fontFamily=Helvetica;fontSize=11;fontColor=default;endArrow=classic;" parent="1" source="39" target="44" edge="1">
                    <mxGeometry relative="1" as="geometry"/>
                </mxCell>
                <mxCell id="39" value="| (PIPE)" style="whiteSpace=wrap;html=1;strokeColor=#FFFFFF;fontFamily=Helvetica;fontSize=12;fontColor=#FFFFFF;fillColor=#000000;" parent="1" vertex="1">
                    <mxGeometry x="160" y="280" width="80" height="40" as="geometry"/>
                </mxCell>
                <mxCell id="95" style="edgeStyle=none;html=1;strokeColor=#FFFFFF;entryX=0;entryY=0.5;entryDx=0;entryDy=0;" parent="1" target="40" edge="1">
                    <mxGeometry relative="1" as="geometry">
                        <mxPoint x="330" y="300" as="targetPoint"/>
                        <mxPoint x="240" y="299.5" as="sourcePoint"/>
                    </mxGeometry>
                </mxCell>
                <mxCell id="102" value="NULL" style="whiteSpace=wrap;html=1;strokeColor=#FFFFFF;fontFamily=Helvetica;fontSize=12;fontColor=#FFFFFF;fillColor=#000000;" parent="1" vertex="1">
                    <mxGeometry x="440" y="400" width="40" height="40" as="geometry"/>
                </mxCell>
                <mxCell id="103" value="NULL" style="whiteSpace=wrap;html=1;strokeColor=#FFFFFF;fontFamily=Helvetica;fontSize=12;fontColor=#FFFFFF;fillColor=#000000;" parent="1" vertex="1">
                    <mxGeometry x="440" y="280" width="40" height="40" as="geometry"/>
                </mxCell>
                <mxCell id="115" value="NULL" style="whiteSpace=wrap;html=1;strokeColor=#FFFFFF;fontFamily=Helvetica;fontSize=12;fontColor=#FFFFFF;fillColor=#000000;" parent="1" vertex="1">
                    <mxGeometry x="680" y="520" width="40" height="40" as="geometry"/>
                </mxCell>
                <mxCell id="117" value="NULL" style="whiteSpace=wrap;html=1;strokeColor=#FFFFFF;fontFamily=Helvetica;fontSize=12;fontColor=#FFFFFF;fillColor=#000000;" parent="1" vertex="1">
                    <mxGeometry x="340" y="600" width="40" height="40" as="geometry"/>
                </mxCell>
                <mxCell id="119" value="NULL" style="whiteSpace=wrap;html=1;strokeColor=#FFFFFF;fontFamily=Helvetica;fontSize=12;fontColor=#FFFFFF;fillColor=#000000;" parent="1" vertex="1">
                    <mxGeometry x="580" y="600" width="40" height="40" as="geometry"/>
                </mxCell>
                <mxCell id="120" value="NULL" style="whiteSpace=wrap;html=1;strokeColor=#FFFFFF;fontFamily=Helvetica;fontSize=12;fontColor=#FFFFFF;fillColor=#000000;" parent="1" vertex="1">
                    <mxGeometry x="460" y="600" width="40" height="40" as="geometry"/>
                </mxCell>
                <mxCell id="125" value="" style="edgeStyle=none;shape=connector;rounded=1;html=1;labelBackgroundColor=default;strokeColor=#FFFFFF;fontFamily=Helvetica;fontSize=11;fontColor=default;endArrow=classic;" parent="1" edge="1">
                    <mxGeometry relative="1" as="geometry">
                        <mxPoint x="200" y="600" as="targetPoint"/>
                        <mxPoint x="200" y="560" as="sourcePoint"/>
                    </mxGeometry>
                </mxCell>
                <mxCell id="126" value="NULL" style="whiteSpace=wrap;html=1;strokeColor=#FFFFFF;fontFamily=Helvetica;fontSize=12;fontColor=#FFFFFF;fillColor=#000000;" parent="1" vertex="1">
                    <mxGeometry x="180" y="600" width="40" height="40" as="geometry"/>
                </mxCell>
                <mxCell id="127" value="" style="edgeStyle=none;shape=connector;rounded=1;html=1;labelBackgroundColor=default;strokeColor=#FFFFFF;fontFamily=Helvetica;fontSize=11;fontColor=default;endArrow=classic;entryX=0;entryY=0.5;entryDx=0;entryDy=0;" parent="1" target="131" edge="1">
                    <mxGeometry relative="1" as="geometry">
                        <mxPoint x="240" y="539.5" as="sourcePoint"/>
                        <mxPoint x="280" y="539.5" as="targetPoint"/>
                    </mxGeometry>
                </mxCell>
                <mxCell id="128" value="NULL" style="whiteSpace=wrap;html=1;strokeColor=#FFFFFF;fontFamily=Helvetica;fontSize=12;fontColor=#FFFFFF;fillColor=#000000;" parent="1" vertex="1">
                    <mxGeometry x="340" y="340" width="40" height="40" as="geometry"/>
                </mxCell>
                <mxCell id="129" value="NULL" style="whiteSpace=wrap;html=1;strokeColor=#FFFFFF;fontFamily=Helvetica;fontSize=12;fontColor=#FFFFFF;fillColor=#000000;" parent="1" vertex="1">
                    <mxGeometry x="260" y="520" width="40" height="40" as="geometry"/>
                </mxCell>
            </root>
        </mxGraphModel>
    </diagram>
</mxfile>